<?xml version="1.0" encoding="UTF-8" standalone="no"?>
<svg
   xmlns:dc="http://purl.org/dc/elements/1.1/"
   xmlns:cc="http://creativecommons.org/ns#"
   xmlns:rdf="http://www.w3.org/1999/02/22-rdf-syntax-ns#"
   xmlns:svg="http://www.w3.org/2000/svg"
   xmlns="http://www.w3.org/2000/svg"
   xmlns:sodipodi="http://sodipodi.sourceforge.net/DTD/sodipodi-0.dtd"
   xmlns:inkscape="http://www.inkscape.org/namespaces/inkscape"
   width="249.48375"
   version="1.1"
   height="170.07875"
   viewBox="0 0 199.587 136.063"
   id="svg2"
   inkscape:version="0.48.4 r9939"
   sodipodi:docname="kliemann_logo.svg"
   inkscape:export-filename="C:\Dokumente und Einstellungen\s.mueller.STATION-7\Desktop\kliemann_logo.png"
   inkscape:export-xdpi="90"
   inkscape:export-ydpi="90">
  <metadata
     id="metadata43">
    <rdf:RDF>
      <cc:Work
         rdf:about="">
        <dc:format>image/svg+xml</dc:format>
        <dc:type
           rdf:resource="http://purl.org/dc/dcmitype/StillImage" />
        <dc:title></dc:title>
      </cc:Work>
    </rdf:RDF>
  </metadata>
  <sodipodi:namedview
     pagecolor="#ffffff"
     bordercolor="#666666"
     borderopacity="1"
     objecttolerance="10"
     gridtolerance="10"
     guidetolerance="10"
     inkscape:pageopacity="0"
     inkscape:pageshadow="2"
     inkscape:window-width="1028"
     inkscape:window-height="774"
     id="namedview41"
     showgrid="false"
     fit-margin-top="10"
     fit-margin-left="10"
     fit-margin-right="10"
     fit-margin-bottom="10"
     inkscape:zoom="1.5"
     inkscape:cx="125"
     inkscape:cy="85.624403"
     inkscape:window-x="271"
     inkscape:window-y="76"
     inkscape:window-maximized="0"
     inkscape:current-layer="svg2" />
  <defs
     id="defs4">
    <clipPath
       id="Clip0">
      <path
         d="m 0,0 0,120.063 183.587,0 L 183.587,0 0,0 z"
         transform="translate(0,0.936523)"
         id="path7"
         inkscape:connector-curvature="0" />
    </clipPath>
  </defs>
  <g
     id="Hintergrund"
     transform="translate(8,7.0634766)">
    <g
       id="Gruppe1"
       clip-path="url(#Clip0)">
      <path
         style="fill:#005ca8;fill-rule:nonzero;stroke:none"
         d="m 106.499,84.5947 -37.2529,0 -38.7129,-39.6113 0,39.6113 L 0,84.5947 0,0 l 30.5332,0 0,37.8428 L 67.2011,0 100.363,0 62.6718,39.6123 106.499,84.5947 z"
         transform="translate(13.2432,1.08789)"
         id="path11"
         inkscape:connector-curvature="0" />
      <path
         style="fill:#005ca8;fill-rule:nonzero;stroke:none"
         d="M 9.973,35.7744 0,35.7744 0,0 l 9.973,0 0,35.7744 z"
         transform="translate(112.913,50.1387)"
         id="path13"
         inkscape:connector-curvature="0" />
      <path
         style="fill:#005ca8;fill-rule:nonzero;stroke:none"
         d="M 9.172,3.9239 C 9.172,5.0079 8.758,5.9287 7.93,6.6856 7.1,7.4424 6.116,7.8213 4.973,7.8213 4.2,7.8213 3.496,7.6495 2.86,7.3047 2.225,6.961 1.723,6.4912 1.354,5.8985 0.986,5.3047 0.802,4.6465 0.802,3.9239 0.802,2.8575 1.207,1.9366 2.018,1.1621 2.828,0.3877 3.813,0 4.973,0 6.116,0 7.1,0.3877 7.93,1.1621 8.758,1.9366 9.172,2.8575 9.172,3.9239 z m 0.802,32.3408 -9.974,0 0,-26.2754 9.974,0 0,26.2754 z"
         transform="translate(130.233,49.6484)"
         id="path15"
         inkscape:connector-curvature="0" />
      <path
         style="fill:#161413;fill-rule:nonzero;stroke:none"
         d="m 20.692,11.2539 c 0,-1.6866 -0.447,-3.0332 -1.34,-4.0401 C 18.459,6.208 17.174,5.7041 15.498,5.7041 13.84,5.7041 12.5,6.2158 11.479,7.2402 10.457,8.2636 9.945,9.6015 9.945,11.2539 l 10.747,0 z m 9.337,4.5937 -19.807,0 c 0.387,1.6006 1.335,2.9082 2.845,3.9229 1.509,1.0166 3.222,1.5234 5.138,1.5234 3.352,0 7.054,-0.8779 11.106,-2.6328 l 0,5.7558 c -1.455,0.7051 -3.219,1.3457 -5.29,1.9229 -2.072,0.5762 -4.71,0.8643 -7.915,0.8643 -3.463,0 -6.409,-0.6026 -8.84,-1.8067 C 4.834,24.1933 3.016,22.5585 1.81,20.4931 0.604,18.4287 0,16.0888 0,13.4736 0,10.8916 0.604,8.582 1.81,6.5429 3.016,4.5039 4.834,2.9033 7.266,1.7421 9.697,0.581 12.643,0 16.106,0 c 2.283,0 4.49,0.4609 6.617,1.3808 2.127,0.9209 3.876,2.4268 5.248,4.5166 1.372,2.0908 2.058,4.7881 2.058,8.0918 l 0,1.8584 z"
         transform="translate(145.87,59.1729)"
         id="path17"
         inkscape:connector-curvature="0" />
      <path
         style="fill:#005ca8;fill-rule:nonzero;stroke:none"
         d="m 50.2031,26.7393 -9.9629,0 0,-14.015 c 0,-1.858 -0.3281,-3.247 -0.9824,-4.168 -0.6553,-0.92 -1.6934,-1.381 -3.1143,-1.381 -1.3838,0 -2.5176,0.392 -3.4033,1.174 -0.8857,0.783 -1.7715,1.768 -2.6572,2.956 l 0,15.434 -9.9629,0 0,-14.015 c 0,-1.772 -0.3047,-3.14 -0.9141,-4.104 -0.6084,-0.963 -1.6875,-1.445 -3.2373,-1.445 -0.7383,0 -1.416,0.138 -2.0342,0.413 -0.6181,0.275 -1.1211,0.586 -1.5087,0.929 -0.3868,0.345 -0.8575,0.852 -1.4112,1.523 -0.5527,0.671 -0.9043,1.093 -1.0508,1.265 l 0,15.434 -9.9638,0 0,-26.2745 9.9638,0 0,3.7676 C 11.458,2.7529 12.9804,1.6777 14.5302,1.0068 16.0801,0.3359 17.8681,0 19.8984,0 c 0.96,0 1.8731,0.082 2.7402,0.2451 0.8663,0.1641 1.7207,0.4434 2.5596,0.8389 0.8399,0.3965 1.6006,0.9385 2.2832,1.626 0.6826,0.6884 1.2276,1.4882 1.6328,2.4003 C 30.7197,3.4238 32.3847,2.1514 34.1093,1.29 35.8349,0.4307 37.8222,0 40.0742,0 c 2.251,0 4.1377,0.4219 5.6592,1.2646 1.5224,0.8438 2.6474,2.0616 3.3759,3.6524 0.7295,1.5913 1.0938,3.5233 1.0938,5.7943 l 0,16.028 z"
         transform="translate(28.3887,93.7627)"
         id="path19"
         inkscape:connector-curvature="0" />
      <path
         style="fill:#005ca8;fill-rule:nonzero;stroke:none"
         d="m 16.5498,20.3903 0,-6.22 c -2.3613,0.895 -4.0869,1.699 -5.1757,2.413 -1.0879,0.714 -1.6329,1.682 -1.6329,2.904 0,0.877 0.2725,1.548 0.8165,2.013 0.5449,0.465 1.1767,0.697 1.8964,0.697 0.6817,0 1.3604,-0.176 2.0342,-0.529 0.6729,-0.353 1.3604,-0.779 2.0615,-1.278 z m 13.8653,5.033 c -1.457,0.534 -2.805,0.964 -4.041,1.291 -1.236,0.326 -2.721,0.49 -4.455,0.49 -1.643,0 -2.786,-0.271 -3.432,-0.813 -0.646,-0.542 -1.107,-1.2 -1.384,-1.974 -1.0699,0.808 -2.2603,1.475 -3.5699,2 -1.3095,0.525 -3.0263,0.787 -5.1474,0.787 -2.0479,0 -3.7041,-0.331 -4.9678,-0.994 C 2.1534,25.5483 1.2676,24.7143 0.7618,23.7073 0.2539,22.7003 0,21.6643 0,20.5963 c 0,-1.617 0.4375,-2.955 1.3145,-4.013 0.876,-1.058 2.0517,-1.923 3.5293,-2.594 1.4756,-0.671 3.4307,-1.368 5.8662,-2.09 1.3848,-0.413 2.4316,-0.727 3.1416,-0.943 0.71,-0.215 1.2412,-0.383 1.5908,-0.503 0.3506,-0.12 0.7207,-0.275 1.1074,-0.465 0,-1.272 -0.2773,-2.271 -0.83,-2.994 -0.5537,-0.722 -1.7539,-1.0841 -3.5977,-1.0841 -2.1777,0 -4.1973,0.4481 -6.0605,1.3431 -1.8643,0.895 -3.5704,2.047 -5.1202,3.458 l 0,-7.1234 C 2.1768,2.7617 3.5147,2.0869 4.9541,1.5615 6.3926,1.0371 7.8965,0.6455 9.4649,0.3867 11.0323,0.1299 12.6202,0 14.2256,0 c 4.0775,0 7.1445,0.7353 9.2015,2.207 2.057,1.4707 3.086,3.4971 3.086,6.0783 l 0,10.143 c 0,0.964 0.097,1.683 0.291,2.156 0.193,0.473 0.548,0.71 1.065,0.71 0.627,0 1.476,-0.25 2.546,-0.749 l 0,4.878 z"
         transform="translate(83.2109,93.7627)"
         id="path21"
         inkscape:connector-curvature="0" />
      <path
         style="fill:#161413;fill-rule:nonzero;stroke:none"
         d="m 30.084,26.7393 -9.963,0 0,-13.627 0,-0.542 c 0,-1.446 -0.254,-2.706 -0.761,-3.782 -0.508,-1.075 -1.619,-1.613 -3.335,-1.613 -0.812,0 -1.527,0.142 -2.146,0.426 -0.617,0.284 -1.172,0.65 -1.66,1.097 -0.488,0.448 -0.899,0.877 -1.231,1.29 -0.332,0.414 -0.674,0.852 -1.025,1.317 l 0,15.434 -9.963,0 0,-26.2745 9.963,0 0,3.7676 C 11.532,2.668 13.105,1.5713 14.682,0.9424 16.26,0.3144 18.018,0 19.954,0 c 6.753,0 10.13,3.7686 10.13,11.3053 l 0,15.434 z"
         transform="translate(117.442,93.7627)"
         id="path23"
         inkscape:connector-curvature="0" />
      <path
         style="fill:#161413;fill-rule:nonzero;stroke:none"
         d="m 30.084,26.7393 -9.963,0 0,-13.627 0,-0.542 c 0,-1.446 -0.254,-2.706 -0.762,-3.782 -0.508,-1.075 -1.619,-1.613 -3.334,-1.613 -0.812,0 -1.527,0.142 -2.145,0.426 -0.618,0.284 -1.172,0.65 -1.661,1.097 -0.489,0.448 -0.899,0.877 -1.231,1.29 -0.332,0.414 -0.674,0.852 -1.024,1.317 l 0,15.434 -9.964,0 0,-26.2745 9.964,0 0,3.7676 C 11.531,2.668 13.105,1.5713 14.683,0.9424 16.26,0.3144 18.018,0 19.955,0 26.707,0 30.084,3.7686 30.084,11.3053 l 0,15.434 z"
         transform="translate(153.503,93.7627)"
         id="path25"
         inkscape:connector-curvature="0" />
      <path
         style="fill:#161413;fill-rule:nonzero;stroke:none"
         d="m 1.52637,0.959 2.0332,0.006 C 2.33399,3.056 1.71973,4.856 1.71484,6.365 1.71094,7.816 2.14356,9.028 3.0127,10.004 3.88086,10.979 4.95899,11.469 6.24609,11.472 7.16895,11.475 8.00195,11.19 8.74414,10.616 9.48633,10.042 10.2012,8.842 10.8907,7.013 11.5791,5.184 12.1534,3.85 12.6114,3.011 13.0704,2.172 13.7325,1.46 14.5997,0.876 15.4678,0.291 16.5909,0 17.9698,0.005 c 1.834,0.005 3.3808,0.689 4.6425,2.051 1.2608,1.362 1.8877,3.021 1.8829,4.979 -0.0069,2.003 -0.708,4.062 -2.1036,6.177 L 20.2207,13.205 C 21.9258,10.873 22.7803,8.849 22.7852,7.134 22.7891,5.706 22.334,4.499 21.42,3.512 20.5049,2.525 19.3819,2.03 18.0489,2.026 17.0342,2.023 16.1192,2.326 15.3028,2.932 14.4864,3.54 13.7207,4.775 13.0069,6.638 12.294,8.5 11.7188,9.831 11.2842,10.631 10.8497,11.43 10.2286,12.108 9.42481,12.664 8.62109,13.221 7.58691,13.497 6.32227,13.493 4.56934,13.488 3.07617,12.805 1.84473,11.442 0.613281,10.081 0,8.444 0.00585938,6.533 0.0107422,4.656 0.517578,2.798 1.52637,0.959 z"
         transform="translate(-0.00585938,107.507)"
         id="path27"
         inkscape:connector-curvature="0" />
      <path
         style="fill:#161413;fill-rule:nonzero;stroke:none"
         d="m 0.038086,0.212 1.539064,0.0039 -0.03321,11.2945 9.55266,0.028 0.0323,-11.0012 1.5556,0.0039 -0.0322,11.0023 9.6904,0.027 L 22.3759,0 23.914,0.0039 23.875,13.4394 0,13.3714 0.038086,0.212 z"
         transform="translate(0.338867,89.8066)"
         id="path29"
         inkscape:connector-curvature="0" />
      <path
         style="fill:#161413;fill-rule:nonzero;stroke:none"
         d="m 1.54394,16.3252 9.34776,0.0263 0.0117,-4.0068 C 10.9092,10.3066 10.5069,8.749 9.69535,7.6699 8.88379,6.5918 7.73144,6.0498 6.23926,6.0459 4.76855,6.041 3.62305,6.5849 2.79883,7.6758 1.97558,8.7676 1.56055,10.3379 1.55469,12.3877 L 1.54394,16.3252 z M 0,18.1845 0.018555,12.0029 C 0.025391,9.4121 0.585938,7.4336 1.70215,6.0674 2.8164,4.7002 4.31933,4.0185 6.21094,4.0244 8.96875,4.0322 10.9004,5.5693 12.0079,8.6347 12.3868,7.8418 13.6026,6.7744 15.6573,5.4336 L 23.9278,0 23.9209,2.208 17.3663,6.3916 c -2.1924,1.3974 -3.5616,2.4873 -4.1045,3.2685 -0.544,0.7813 -0.8174,1.9248 -0.8223,3.4327 L 12.4297,16.3554 23.8799,16.3886 23.875,18.2549 0,18.1845 z"
         transform="translate(0.389648,67.6885)"
         id="path31"
         inkscape:connector-curvature="0" />
      <path
         style="fill:#161413;fill-rule:nonzero;stroke:none"
         d="M 0.060547,0 24.1455,10.1797 24.1436,10.7305 0,20.8106 0.005859,18.9209 20.2314,10.4287 0.055664,1.8828 0.060547,0 z"
         transform="translate(0.4375,48.5361)"
         id="path33"
         inkscape:connector-curvature="0" />
      <path
         style="fill:#161413;fill-rule:nonzero;stroke:none"
         d="M 0.004883,0 23.8799,0.0693 23.8741,1.9346 0,1.8652 0.004883,0 z"
         transform="translate(0.506836,43.8047)"
         id="path35"
         inkscape:connector-curvature="0" />
      <path
         style="fill:#161413;fill-rule:nonzero;stroke:none"
         d="m 2.03516,0.1884 2.0166,0.0069 c -1.54688,2.9199 -2.3252,5.7842 -2.33301,8.5928 -0.00781,2.9941 0.99316,5.5009 3.00391,7.5214 2.00976,2.0205 4.52539,3.0352 7.54394,3.044 3.0538,0.0088 5.5694,-0.9971 7.5459,-3.0176 1.9776,-2.0205 2.9707,-4.6025 2.9786,-7.7461 C 22.7998,5.9648 21.9932,3.1015 20.3731,0 l 1.9141,0.0058 c 1.4843,2.8594 2.2216,5.711 2.2138,8.5547 -0.0107,3.6729 -1.1846,6.7295 -3.5224,9.169 -2.337,2.4394 -5.2422,3.6543 -8.7168,3.6435 C 8.76367,21.3642 5.84473,20.1064 3.50488,17.6006 1.16504,15.0957 0,12.1162 0.010742,8.6631 0.017578,5.9463 0.693359,3.1211 2.03516,0.1884 z"
         transform="translate(0.244141,18.0098)"
         id="path37"
         inkscape:connector-curvature="0" />
      <path
         style="fill:#161413;fill-rule:nonzero;stroke:none"
         d="M 0.037109,0.211917 1.57617,0.216797 1.54297,11.5108 11.0957,11.5381 11.1289,0.537107 12.6836,0.541997 12.6514,11.543 22.3409,11.5713 22.375,0 23.9131,0.004883 23.8741,13.4405 0,13.3711 0.037109,0.211917 z"
         transform="translate(0.598633,0.936523)"
         id="path39"
         inkscape:connector-curvature="0" />
    </g>
  </g>
</svg>
